<?xml version="1.0" standalone="no"?>
<!DOCTYPE svg PUBLIC "-//W3C//DTD SVG 20010904//EN"
 "http://www.w3.org/TR/2001/REC-SVG-20010904/DTD/svg10.dtd">
<svg version="1.0" xmlns="http://www.w3.org/2000/svg"
 width="136.000000pt" height="28.000000pt" viewBox="0 0 136.000000 28.000000"
 preserveAspectRatio="xMidYMid meet">

<g transform="translate(0.000000,28.000000) scale(0.100000,-0.100000)"
fill="#000000" stroke="none">
<path d="M235 270 c-3 -6 1 -7 9 -4 18 7 21 14 7 14 -6 0 -13 -4 -16 -10z"/>
<path d="M310 249 c-30 -16 -63 -29 -72 -29 -10 0 -18 -4 -18 -10 0 -5 -11
-12 -25 -16 -14 -3 -25 -13 -25 -21 0 -8 -7 -21 -15 -29 -12 -13 -15 -12 -25
6 l-11 21 -19 -20 -18 -21 -6 22 c-5 20 -8 21 -17 8 -8 -12 -10 -8 -7 16 3 23
1 31 -9 27 -7 -3 -13 -9 -13 -15 0 -5 -4 -7 -9 -4 -4 3 -6 17 -3 31 2 14 0 25
-6 25 -16 0 -11 -232 6 -238 8 -2 10 3 6 15 -5 16 -4 16 8 2 11 -13 44 -16
201 -18 l187 -2 0 140 0 141 -27 -1 c-16 0 -53 -14 -83 -30z m-252 -157 c2 -7
-2 -10 -12 -6 -9 3 -16 11 -16 16 0 13 23 5 28 -10z m52 -24 c0 -13 -23 -5
-28 10 -2 7 2 10 12 6 9 -3 16 -11 16 -16z m60 -8 c0 -5 -2 -10 -4 -10 -3 0
-8 5 -11 10 -3 6 -1 10 4 10 6 0 11 -4 11 -10z"/>
<path d="M190 234 c-24 -13 -24 -14 -4 -14 12 0 24 7 28 15 3 8 4 15 3 14 -1
-1 -13 -7 -27 -15z"/>
<path d="M556 172 l-38 -37 16 33 c14 26 14 32 2 32 -17 0 -99 -105 -94 -121
2 -7 14 4 27 24 26 43 35 48 21 12 -12 -32 -3 -32 33 3 25 23 28 24 18 5 -16
-31 -15 -31 27 -31 23 0 45 7 59 20 l22 20 -6 -21 c-5 -19 -1 -20 68 -20 61 1
75 4 89 22 18 22 43 16 33 -9 -4 -11 0 -15 13 -14 36 4 41 0 36 -25 -2 -14 0
-25 5 -25 12 0 47 38 62 68 10 18 9 22 -3 22 -13 0 -12 7 5 38 21 37 21 37 0
12 -11 -14 -26 -32 -34 -41 -8 -9 -17 -23 -21 -30 -3 -8 -4 -2 -1 14 4 21 2
27 -13 27 -10 0 -24 -6 -31 -12 -11 -10 -13 -10 -7 0 14 25 -41 13 -58 -13
-19 -29 -49 -34 -44 -7 2 9 11 16 21 16 9 -1 17 2 17 7 0 17 -27 9 -49 -15
-29 -30 -86 -34 -71 -5 14 25 13 29 -9 29 -10 0 -26 -12 -36 -26 -9 -14 -19
-23 -22 -20 -3 3 0 12 7 21 7 9 9 19 5 23 -4 4 -10 1 -12 -6 -3 -7 -14 -17
-25 -23 -23 -13 -20 -5 19 48 33 45 13 49 -31 5z m318 -47 c-4 -8 -11 -15 -16
-15 -6 0 -5 6 2 15 7 8 14 15 16 15 2 0 1 -7 -2 -15z m37 -48 c-13 -12 -20
-15 -16 -7 14 26 28 41 33 35 3 -3 -5 -16 -17 -28z"/>
<path d="M1097 203 c-48 -4 -57 -23 -12 -23 18 0 23 -4 19 -15 -4 -8 -14 -15
-24 -15 -11 0 -22 -4 -25 -10 -3 -5 2 -10 11 -10 14 0 15 -3 6 -12 -14 -14
-16 -28 -3 -28 5 0 13 9 16 20 3 11 13 20 22 20 9 0 13 6 10 14 -8 20 25 47
42 36 8 -4 20 -6 28 -3 21 8 15 -10 -18 -50 -20 -24 -26 -37 -16 -37 8 0 28
23 45 50 29 46 59 69 46 35 -4 -8 -1 -15 5 -15 6 0 11 4 11 9 0 5 7 12 16 15
15 6 15 4 0 -19 -9 -14 -23 -36 -32 -50 -10 -15 -12 -25 -6 -25 6 0 16 9 22
20 6 11 19 20 29 20 30 0 65 34 58 54 -6 14 -16 17 -52 14 -25 -2 -45 0 -45 5
0 4 -9 3 -19 -3 -25 -13 -71 -13 -71 0 0 6 -3 9 -7 8 -5 -1 -29 -3 -56 -5z
m233 -28 c0 -16 -27 -32 -37 -21 -7 7 16 36 28 36 5 0 9 -7 9 -15z"/>
<path d="M990 175 c-14 -8 -19 -14 -12 -15 10 0 10 -5 -2 -22 -9 -12 -16 -28
-16 -35 0 -16 26 -17 36 -1 4 7 3 8 -4 4 -7 -4 -12 -1 -12 6 1 16 21 43 37 49
7 2 9 9 5 16 -5 8 -13 8 -32 -2z"/>
<path d="M610 169 c0 -5 5 -7 10 -4 6 3 10 8 10 11 0 2 -4 4 -10 4 -5 0 -10
-5 -10 -11z"/>
<path d="M687 143 c-12 -11 -7 -35 6 -30 6 2 11 10 9 16 -1 7 2 10 7 7 5 -4
12 -2 16 4 7 11 -28 14 -38 3z"/>
</g>
</svg>
