<?xml version="1.0" standalone="no"?>
<!DOCTYPE svg PUBLIC "-//W3C//DTD SVG 20010904//EN"
 "http://www.w3.org/TR/2001/REC-SVG-20010904/DTD/svg10.dtd">
<svg version="1.0" xmlns="http://www.w3.org/2000/svg"
 width="136.000000pt" height="28.000000pt" viewBox="0 0 136.000000 28.000000"
 preserveAspectRatio="xMidYMid meet">

<g transform="translate(0.000000,28.000000) scale(0.100000,-0.100000)"
fill="#000000" stroke="none">
<path d="M235 270 c-3 -6 1 -7 9 -4 18 7 21 14 7 14 -6 0 -13 -4 -16 -10z"/>
<path d="M310 249 c-30 -16 -63 -29 -72 -29 -10 0 -18 -4 -18 -10 0 -5 -11
-12 -25 -16 -14 -3 -25 -13 -25 -21 0 -8 -7 -21 -15 -29 -12 -13 -15 -12 -25
6 l-11 21 -19 -20 -18 -21 -6 22 c-5 20 -8 21 -17 8 -8 -12 -10 -8 -7 16 3 23
1 31 -9 27 -7 -3 -13 -9 -13 -15 0 -5 -4 -7 -9 -4 -4 3 -6 17 -3 31 2 14 0 25
-6 25 -16 0 -11 -232 6 -238 8 -2 10 3 6 15 -5 16 -4 16 8 2 11 -13 44 -16
201 -18 l187 -2 0 140 0 141 -27 -1 c-16 0 -53 -14 -83 -30z m-252 -157 c2 -7
-2 -10 -12 -6 -9 3 -16 11 -16 16 0 13 23 5 28 -10z m52 -24 c0 -13 -23 -5
-28 10 -2 7 2 10 12 6 9 -3 16 -11 16 -16z m60 -8 c0 -5 -2 -10 -4 -10 -3 0
-8 5 -11 10 -3 6 -1 10 4 10 6 0 11 -4 11 -10z"/>
<path d="M190 234 c-24 -13 -24 -14 -4 -14 12 0 24 7 28 15 3 8 4 15 3 14 -1
-1 -13 -7 -27 -15z"/>
</g>
</svg>
